<svg xmlns="http://www.w3.org/2000/svg" xmlns:xlink="http://www.w3.org/1999/xlink" width="320" zoomAndPan="magnify" viewBox="0 0 240 89.999999" height="120" preserveAspectRatio="xMidYMid meet" version="1.0"><defs><g/></defs><g fill="#ffffff" fill-opacity="0.4"><g transform="translate(7.108299, 61.906636)"><g><path d="M 33.167969 -28.238281 L 26.828125 -34.433594 C 26.335938 -34.929688 25.703125 -35.210938 25 -35.210938 L 3.167969 -35.210938 C 2.605469 -35.210938 2.113281 -34.71875 2.113281 -34.152344 L 2.113281 -20.351562 C 2.113281 -19.789062 2.605469 -19.296875 3.167969 -19.296875 L 8.027344 -19.296875 C 8.589844 -19.296875 9.085938 -19.789062 9.085938 -20.351562 L 9.085938 -28.378906 L 22.746094 -28.378906 C 23.238281 -28.378906 23.589844 -28.238281 23.941406 -27.886719 L 26.054688 -25.632812 L 26.40625 -25.210938 C 26.546875 -25 26.617188 -24.789062 26.617188 -24.507812 L 26.617188 -11.054688 C 26.617188 -10.5625 26.40625 -10.210938 26.125 -9.859375 L 23.871094 -7.535156 C 23.449219 -7.113281 23.167969 -6.972656 22.816406 -6.972656 L 8.660156 -6.972656 C 8.097656 -6.972656 7.605469 -6.480469 7.605469 -5.914062 L 7.605469 -1.054688 C 7.605469 -0.492188 8.097656 0 8.660156 0 L 24.789062 0 C 25.632812 0 26.195312 -0.210938 26.828125 -0.84375 L 33.167969 -7.183594 C 33.589844 -7.605469 34.011719 -8.308594 34.011719 -9.015625 L 34.011719 -26.125 C 34.011719 -27.042969 33.730469 -27.675781 33.167969 -28.238281 Z M 33.167969 -28.238281 "/></g></g></g><g fill="#ffffff" fill-opacity="0.4"><g transform="translate(51.187729, 61.906636)"><g><path d="M 2.113281 -9.015625 C 2.113281 -8.308594 2.394531 -7.675781 2.886719 -7.183594 L 9.085938 -0.84375 C 9.648438 -0.28125 10.28125 0 11.195312 0 L 24.929688 0 C 25.84375 0 26.476562 -0.28125 27.042969 -0.84375 L 33.238281 -7.183594 C 33.730469 -7.675781 34.011719 -8.308594 34.011719 -9.015625 L 34.011719 -26.195312 C 34.011719 -26.898438 33.730469 -27.535156 33.238281 -28.027344 L 27.042969 -34.363281 C 26.476562 -34.929688 25.84375 -35.210938 24.929688 -35.210938 L 11.195312 -35.210938 C 10.28125 -35.210938 9.648438 -34.929688 9.085938 -34.363281 L 2.886719 -28.027344 C 2.394531 -27.535156 2.113281 -26.898438 2.113281 -26.195312 Z M 8.941406 -10.84375 L 8.941406 -24.363281 C 8.941406 -24.859375 9.085938 -25.210938 9.4375 -25.5625 L 11.691406 -27.675781 L 12.113281 -28.027344 C 12.253906 -28.167969 12.464844 -28.238281 12.816406 -28.238281 L 23.308594 -28.238281 C 23.589844 -28.238281 23.800781 -28.167969 24.011719 -28.027344 L 24.4375 -27.675781 L 26.6875 -25.5625 C 27.042969 -25.210938 27.183594 -24.859375 27.183594 -24.363281 L 27.183594 -10.84375 C 27.183594 -10.351562 27.042969 -10 26.6875 -9.648438 L 24.4375 -7.535156 L 24.011719 -7.183594 C 23.800781 -7.042969 23.589844 -6.972656 23.308594 -6.972656 L 12.816406 -6.972656 C 12.464844 -6.972656 12.253906 -7.042969 12.113281 -7.183594 L 11.691406 -7.535156 L 9.4375 -9.648438 C 9.085938 -10 8.941406 -10.351562 8.941406 -10.84375 Z M 8.941406 -10.84375 "/></g></g></g><g fill="#ffffff" fill-opacity="0.4"><g transform="translate(95.26716, 61.906636)"><g><path d="M 33.167969 -15.351562 L 29.789062 -18.660156 L 30.84375 -19.71875 C 31.40625 -20.28125 31.6875 -20.914062 31.6875 -21.828125 L 31.6875 -27.535156 C 31.6875 -28.449219 31.40625 -29.082031 30.84375 -29.648438 L 25.914062 -34.433594 C 25.421875 -34.859375 24.789062 -35.210938 24.082031 -35.210938 L 3.167969 -35.210938 C 2.605469 -35.210938 2.113281 -34.71875 2.113281 -34.152344 L 2.113281 -1.054688 C 2.113281 -0.492188 2.605469 0 3.167969 0 L 26.40625 0 C 27.113281 0 27.746094 -0.351562 28.238281 -0.773438 L 33.167969 -5.5625 C 33.730469 -6.125 34.011719 -6.761719 34.011719 -7.675781 L 34.011719 -13.238281 C 34.011719 -14.15625 33.730469 -14.789062 33.167969 -15.351562 Z M 22.253906 -28.378906 C 22.746094 -28.378906 23.167969 -28.238281 23.449219 -27.886719 L 24.507812 -26.617188 C 24.648438 -26.40625 24.71875 -26.195312 24.71875 -25.914062 L 24.71875 -23.449219 C 24.71875 -23.167969 24.648438 -22.957031 24.507812 -22.746094 L 23.449219 -21.476562 C 23.167969 -21.125 22.746094 -20.984375 22.253906 -20.984375 L 9.015625 -20.984375 L 9.015625 -28.378906 Z M 27.042969 -9.296875 C 27.042969 -9.015625 26.96875 -8.800781 26.828125 -8.589844 L 25.773438 -7.324219 C 25.492188 -6.972656 25.070312 -6.832031 24.578125 -6.832031 L 9.015625 -6.832031 L 9.015625 -14.082031 L 24.578125 -14.082031 C 25.070312 -14.082031 25.492188 -13.941406 25.773438 -13.589844 L 26.828125 -12.324219 C 26.96875 -12.113281 27.042969 -11.902344 27.042969 -11.621094 Z M 27.042969 -9.296875 "/></g></g></g><g fill="#ffffff" fill-opacity="0.4"><g transform="translate(139.34659, 61.906636)"><g><path d="M 3.167969 0 L 8.449219 0 C 9.015625 0 9.507812 -0.492188 9.507812 -1.054688 L 9.507812 -34.152344 C 9.507812 -34.71875 9.015625 -35.210938 8.449219 -35.210938 L 3.167969 -35.210938 C 2.605469 -35.210938 2.113281 -34.71875 2.113281 -34.152344 L 2.113281 -1.054688 C 2.113281 -0.492188 2.605469 0 3.167969 0 Z M 3.167969 0 "/></g></g></g><g fill="#ffffff" fill-opacity="0.4"><g transform="translate(158.922246, 61.906636)"><g><path d="M 32.957031 -35.210938 L 11.335938 -35.210938 C 10.492188 -35.210938 9.929688 -35 9.296875 -34.363281 L 2.957031 -28.027344 C 2.535156 -27.605469 2.113281 -26.898438 2.113281 -26.195312 L 2.113281 -1.054688 C 2.113281 -0.492188 2.605469 0 3.167969 0 L 8.449219 0 C 9.015625 0 9.507812 -0.492188 9.507812 -1.054688 L 9.507812 -8.941406 L 28.449219 -8.941406 C 29.011719 -8.941406 29.503906 -9.4375 29.503906 -10 L 29.503906 -14.859375 C 29.503906 -15.421875 29.011719 -15.914062 28.449219 -15.914062 L 9.507812 -15.914062 L 9.507812 -24.363281 C 9.507812 -24.859375 9.648438 -25.210938 10 -25.5625 L 12.253906 -27.675781 C 12.675781 -28.097656 12.957031 -28.238281 13.308594 -28.238281 L 32.957031 -28.238281 C 33.519531 -28.238281 34.011719 -28.730469 34.011719 -29.292969 L 34.011719 -34.152344 C 34.011719 -34.71875 33.519531 -35.210938 32.957031 -35.210938 Z M 32.957031 -35.210938 "/></g></g></g><g fill="#ffffff" fill-opacity="0.4"><g transform="translate(203.001684, 61.906636)"><g><path d="M 32.957031 -35.210938 L 28.238281 -35.210938 C 27.675781 -35.210938 27.183594 -34.71875 27.183594 -34.152344 L 27.183594 -21.617188 C 27.183594 -21.125 27.042969 -20.84375 26.6875 -20.421875 L 22.324219 -15.984375 L 21.902344 -15.632812 C 21.6875 -15.492188 21.476562 -15.421875 21.195312 -15.421875 L 14.929688 -15.421875 C 14.578125 -15.421875 14.367188 -15.492188 14.226562 -15.632812 L 13.800781 -15.984375 L 9.4375 -20.421875 C 9.015625 -20.84375 8.941406 -21.125 8.941406 -21.617188 L 8.941406 -34.152344 C 8.941406 -34.71875 8.449219 -35.210938 7.886719 -35.210938 L 3.167969 -35.210938 C 2.605469 -35.210938 2.113281 -34.71875 2.113281 -34.152344 L 2.113281 -19.789062 C 2.113281 -19.082031 2.324219 -18.519531 2.886719 -17.957031 L 11.054688 -9.296875 C 11.546875 -8.730469 12.253906 -8.449219 13.167969 -8.449219 L 14.367188 -8.449219 L 14.367188 -1.054688 C 14.367188 -0.492188 14.859375 0 15.421875 0 L 20.703125 0 C 21.265625 0 21.757812 -0.492188 21.757812 -1.054688 L 21.757812 -8.449219 L 22.957031 -8.449219 C 23.871094 -8.449219 24.507812 -8.730469 25.070312 -9.296875 L 33.238281 -17.957031 C 33.730469 -18.519531 34.011719 -19.082031 34.011719 -19.789062 L 34.011719 -34.152344 C 34.011719 -34.71875 33.519531 -35.210938 32.957031 -35.210938 Z M 32.957031 -35.210938 "/></g></g></g><g fill="#ffffff" fill-opacity="1"><g transform="translate(3.996139, 58.794475)"><g><path d="M 33.167969 -28.238281 L 26.828125 -34.433594 C 26.335938 -34.929688 25.703125 -35.210938 25 -35.210938 L 3.167969 -35.210938 C 2.605469 -35.210938 2.113281 -34.71875 2.113281 -34.152344 L 2.113281 -20.351562 C 2.113281 -19.789062 2.605469 -19.296875 3.167969 -19.296875 L 8.027344 -19.296875 C 8.589844 -19.296875 9.085938 -19.789062 9.085938 -20.351562 L 9.085938 -28.378906 L 22.746094 -28.378906 C 23.238281 -28.378906 23.589844 -28.238281 23.941406 -27.886719 L 26.054688 -25.632812 L 26.40625 -25.210938 C 26.546875 -25 26.617188 -24.789062 26.617188 -24.507812 L 26.617188 -11.054688 C 26.617188 -10.5625 26.40625 -10.210938 26.125 -9.859375 L 23.871094 -7.535156 C 23.449219 -7.113281 23.167969 -6.972656 22.816406 -6.972656 L 8.660156 -6.972656 C 8.097656 -6.972656 7.605469 -6.480469 7.605469 -5.914062 L 7.605469 -1.054688 C 7.605469 -0.492188 8.097656 0 8.660156 0 L 24.789062 0 C 25.632812 0 26.195312 -0.210938 26.828125 -0.84375 L 33.167969 -7.183594 C 33.589844 -7.605469 34.011719 -8.308594 34.011719 -9.015625 L 34.011719 -26.125 C 34.011719 -27.042969 33.730469 -27.675781 33.167969 -28.238281 Z M 33.167969 -28.238281 "/></g></g></g><g fill="#ffffff" fill-opacity="1"><g transform="translate(48.075569, 58.794475)"><g><path d="M 2.113281 -9.015625 C 2.113281 -8.308594 2.394531 -7.675781 2.886719 -7.183594 L 9.085938 -0.84375 C 9.648438 -0.28125 10.28125 0 11.195312 0 L 24.929688 0 C 25.84375 0 26.476562 -0.28125 27.042969 -0.84375 L 33.238281 -7.183594 C 33.730469 -7.675781 34.011719 -8.308594 34.011719 -9.015625 L 34.011719 -26.195312 C 34.011719 -26.898438 33.730469 -27.535156 33.238281 -28.027344 L 27.042969 -34.363281 C 26.476562 -34.929688 25.84375 -35.210938 24.929688 -35.210938 L 11.195312 -35.210938 C 10.28125 -35.210938 9.648438 -34.929688 9.085938 -34.363281 L 2.886719 -28.027344 C 2.394531 -27.535156 2.113281 -26.898438 2.113281 -26.195312 Z M 8.941406 -10.84375 L 8.941406 -24.363281 C 8.941406 -24.859375 9.085938 -25.210938 9.4375 -25.5625 L 11.691406 -27.675781 L 12.113281 -28.027344 C 12.253906 -28.167969 12.464844 -28.238281 12.816406 -28.238281 L 23.308594 -28.238281 C 23.589844 -28.238281 23.800781 -28.167969 24.011719 -28.027344 L 24.4375 -27.675781 L 26.6875 -25.5625 C 27.042969 -25.210938 27.183594 -24.859375 27.183594 -24.363281 L 27.183594 -10.84375 C 27.183594 -10.351562 27.042969 -10 26.6875 -9.648438 L 24.4375 -7.535156 L 24.011719 -7.183594 C 23.800781 -7.042969 23.589844 -6.972656 23.308594 -6.972656 L 12.816406 -6.972656 C 12.464844 -6.972656 12.253906 -7.042969 12.113281 -7.183594 L 11.691406 -7.535156 L 9.4375 -9.648438 C 9.085938 -10 8.941406 -10.351562 8.941406 -10.84375 Z M 8.941406 -10.84375 "/></g></g></g><g fill="#ffffff" fill-opacity="1"><g transform="translate(92.155, 58.794475)"><g><path d="M 33.167969 -15.351562 L 29.789062 -18.660156 L 30.84375 -19.71875 C 31.40625 -20.28125 31.6875 -20.914062 31.6875 -21.828125 L 31.6875 -27.535156 C 31.6875 -28.449219 31.40625 -29.082031 30.84375 -29.648438 L 25.914062 -34.433594 C 25.421875 -34.859375 24.789062 -35.210938 24.082031 -35.210938 L 3.167969 -35.210938 C 2.605469 -35.210938 2.113281 -34.71875 2.113281 -34.152344 L 2.113281 -1.054688 C 2.113281 -0.492188 2.605469 0 3.167969 0 L 26.40625 0 C 27.113281 0 27.746094 -0.351562 28.238281 -0.773438 L 33.167969 -5.5625 C 33.730469 -6.125 34.011719 -6.761719 34.011719 -7.675781 L 34.011719 -13.238281 C 34.011719 -14.15625 33.730469 -14.789062 33.167969 -15.351562 Z M 22.253906 -28.378906 C 22.746094 -28.378906 23.167969 -28.238281 23.449219 -27.886719 L 24.507812 -26.617188 C 24.648438 -26.40625 24.71875 -26.195312 24.71875 -25.914062 L 24.71875 -23.449219 C 24.71875 -23.167969 24.648438 -22.957031 24.507812 -22.746094 L 23.449219 -21.476562 C 23.167969 -21.125 22.746094 -20.984375 22.253906 -20.984375 L 9.015625 -20.984375 L 9.015625 -28.378906 Z M 27.042969 -9.296875 C 27.042969 -9.015625 26.96875 -8.800781 26.828125 -8.589844 L 25.773438 -7.324219 C 25.492188 -6.972656 25.070312 -6.832031 24.578125 -6.832031 L 9.015625 -6.832031 L 9.015625 -14.082031 L 24.578125 -14.082031 C 25.070312 -14.082031 25.492188 -13.941406 25.773438 -13.589844 L 26.828125 -12.324219 C 26.96875 -12.113281 27.042969 -11.902344 27.042969 -11.621094 Z M 27.042969 -9.296875 "/></g></g></g><g fill="#ffffff" fill-opacity="1"><g transform="translate(136.23443, 58.794475)"><g><path d="M 3.167969 0 L 8.449219 0 C 9.015625 0 9.507812 -0.492188 9.507812 -1.054688 L 9.507812 -34.152344 C 9.507812 -34.71875 9.015625 -35.210938 8.449219 -35.210938 L 3.167969 -35.210938 C 2.605469 -35.210938 2.113281 -34.71875 2.113281 -34.152344 L 2.113281 -1.054688 C 2.113281 -0.492188 2.605469 0 3.167969 0 Z M 3.167969 0 "/></g></g></g><g fill="#ffffff" fill-opacity="1"><g transform="translate(155.810085, 58.794475)"><g><path d="M 32.957031 -35.210938 L 11.335938 -35.210938 C 10.492188 -35.210938 9.929688 -35 9.296875 -34.363281 L 2.957031 -28.027344 C 2.535156 -27.605469 2.113281 -26.898438 2.113281 -26.195312 L 2.113281 -1.054688 C 2.113281 -0.492188 2.605469 0 3.167969 0 L 8.449219 0 C 9.015625 0 9.507812 -0.492188 9.507812 -1.054688 L 9.507812 -8.941406 L 28.449219 -8.941406 C 29.011719 -8.941406 29.503906 -9.4375 29.503906 -10 L 29.503906 -14.859375 C 29.503906 -15.421875 29.011719 -15.914062 28.449219 -15.914062 L 9.507812 -15.914062 L 9.507812 -24.363281 C 9.507812 -24.859375 9.648438 -25.210938 10 -25.5625 L 12.253906 -27.675781 C 12.675781 -28.097656 12.957031 -28.238281 13.308594 -28.238281 L 32.957031 -28.238281 C 33.519531 -28.238281 34.011719 -28.730469 34.011719 -29.292969 L 34.011719 -34.152344 C 34.011719 -34.71875 33.519531 -35.210938 32.957031 -35.210938 Z M 32.957031 -35.210938 "/></g></g></g><g fill="#ffffff" fill-opacity="1"><g transform="translate(199.889523, 58.794475)"><g><path d="M 32.957031 -35.210938 L 28.238281 -35.210938 C 27.675781 -35.210938 27.183594 -34.71875 27.183594 -34.152344 L 27.183594 -21.617188 C 27.183594 -21.125 27.042969 -20.84375 26.6875 -20.421875 L 22.324219 -15.984375 L 21.902344 -15.632812 C 21.6875 -15.492188 21.476562 -15.421875 21.195312 -15.421875 L 14.929688 -15.421875 C 14.578125 -15.421875 14.367188 -15.492188 14.226562 -15.632812 L 13.800781 -15.984375 L 9.4375 -20.421875 C 9.015625 -20.84375 8.941406 -21.125 8.941406 -21.617188 L 8.941406 -34.152344 C 8.941406 -34.71875 8.449219 -35.210938 7.886719 -35.210938 L 3.167969 -35.210938 C 2.605469 -35.210938 2.113281 -34.71875 2.113281 -34.152344 L 2.113281 -19.789062 C 2.113281 -19.082031 2.324219 -18.519531 2.886719 -17.957031 L 11.054688 -9.296875 C 11.546875 -8.730469 12.253906 -8.449219 13.167969 -8.449219 L 14.367188 -8.449219 L 14.367188 -1.054688 C 14.367188 -0.492188 14.859375 0 15.421875 0 L 20.703125 0 C 21.265625 0 21.757812 -0.492188 21.757812 -1.054688 L 21.757812 -8.449219 L 22.957031 -8.449219 C 23.871094 -8.449219 24.507812 -8.730469 25.070312 -9.296875 L 33.238281 -17.957031 C 33.730469 -18.519531 34.011719 -19.082031 34.011719 -19.789062 L 34.011719 -34.152344 C 34.011719 -34.71875 33.519531 -35.210938 32.957031 -35.210938 Z M 32.957031 -35.210938 "/></g></g></g></svg>